<?xml version="1.0" encoding="UTF-8" standalone="no"?>
<!DOCTYPE svg PUBLIC "-//W3C//DTD SVG 1.1//EN" "http://www.w3.org/Graphics/SVG/1.1/DTD/svg11.dtd">
<svg width="100%" height="100%" viewBox="0 0 120 120" version="1.1" xmlns="http://www.w3.org/2000/svg" xmlns:xlink="http://www.w3.org/1999/xlink" xml:space="preserve" xmlns:serif="http://www.serif.com/" style="fill-rule:evenodd;clip-rule:evenodd;stroke-linejoin:round;stroke-miterlimit:2;">
    <g transform="matrix(1,0,0,1,-1023.33,-1260.55)">
        <g transform="matrix(1,0,0,1,688.94,77.4491)">
            <path d="M354.125,1183.1C353.17,1187.57 352.693,1192.38 352.693,1197.54C352.693,1207.67 354.781,1216.55 358.956,1224.17C363.131,1231.8 370.309,1239.92 380.491,1248.54L388.734,1255.6C395.899,1261.59 400.814,1267.02 403.481,1271.88C406.148,1276.75 407.481,1282.66 407.481,1289.6C407.481,1293.78 406.986,1297.56 405.994,1300.93C402.099,1301.74 398.06,1302.16 393.924,1302.16L334.392,1302.16L334.392,1183.1L354.125,1183.1ZM370.756,1183.1L393.924,1183.1C426.78,1183.1 453.456,1209.77 453.456,1242.63C453.456,1264.33 441.825,1283.33 424.464,1293.73C424.725,1291.1 424.855,1288.37 424.855,1285.53C424.855,1274.68 422.808,1265.38 418.713,1257.64C414.619,1249.89 407.4,1241.67 397.057,1232.97L388.491,1225.79C381.057,1219.49 375.939,1214.06 373.138,1209.51C370.336,1204.96 368.936,1199.73 368.936,1193.83C368.936,1189.87 369.542,1186.29 370.756,1183.1Z" style="fill:white;"/>
        </g>
    </g>
</svg>
