<svg id="Layer_1" data-name="Layer 1" xmlns="http://www.w3.org/2000/svg" viewBox="0 0 81.87 174.06"><defs><style>.cls-1{fill:#da5f3e;}.cls-2{fill:#fff;fill-rule:evenodd;}</style></defs><path class="cls-1" d="M339,507.82c-45.22,0-81.87-41.26-81.87-67.81V333.76H339V507.82" transform="translate(-257.17 -333.76)"/><path class="cls-2" d="M283.89,353.05a28.05,28.05,0,0,0-.58,5.88,22.25,22.25,0,0,0,2.55,10.85q2.55,4.67,8.77,9.93l3.36,2.87a25.26,25.26,0,0,1,6,6.63,14.93,14.93,0,0,1,1.63,7.22,16.2,16.2,0,0,1-.61,4.62,24.05,24.05,0,0,1-4.91.5H275.86v-48.5Zm6.78,0h9.44a24.25,24.25,0,0,1,12.44,45.06c.1-1.07.15-2.18.15-3.34a24,24,0,0,0-2.5-11.36q-2.49-4.73-8.82-10.05l-3.49-2.92a30.87,30.87,0,0,1-6.25-6.63,12,12,0,0,1-1.71-6.39A12.11,12.11,0,0,1,290.67,353.05Z" transform="translate(-257.17 -333.76)"/></svg>